<svg width="50" height="50" viewBox="0 0 50 50" fill="none" xmlns="http://www.w3.org/2000/svg">
<path d="M18.75 45.8334H31.25C41.6667 45.8334 45.8333 41.6668 45.8333 31.2501V18.7501C45.8333 8.33342 41.6667 4.16675 31.25 4.16675H18.75C8.33333 4.16675 4.16666 8.33342 4.16666 18.7501V31.2501C4.16666 41.6668 8.33333 45.8334 18.75 45.8334Z" stroke="#292D32" stroke-width="1.5" stroke-linecap="round" stroke-linejoin="round"/>
<path d="M25 32.2916C29.0271 32.2916 32.2917 29.027 32.2917 24.9999C32.2917 20.9728 29.0271 17.7083 25 17.7083C20.9729 17.7083 17.7083 20.9728 17.7083 24.9999C17.7083 29.027 20.9729 32.2916 25 32.2916Z" stroke="#292D32" stroke-width="1.5" stroke-linecap="round" stroke-linejoin="round"/>
<path d="M36.7419 14.5834H36.766" stroke="#292D32" stroke-width="2" stroke-linecap="round" stroke-linejoin="round"/>
</svg>
