<?xml version="1.0" encoding="UTF-8"?>
<svg width="700pt" height="700pt" version="1.1" viewBox="0 0 700 700" xmlns="http://www.w3.org/2000/svg">
 <path d="m542.5 87.5h-385c-28.945 0-52.5 23.555-52.5 52.5v280c0 28.945 23.555 52.5 52.5 52.5h385c28.945 0 52.5-23.555 52.5-52.5v-280c0-28.945-23.555-52.5-52.5-52.5zm-11.656 35-170.33 127.75c-6.1953 4.6367-14.84 4.6367-21.016 0l-170.34-127.75zm11.656 315h-385c-9.6602 0-17.5-7.8594-17.5-17.5v-275.62l178.5 133.88c9.2578 6.9492 20.387 10.43 31.5 10.43s22.242-3.4844 31.5-10.43l178.5-133.88v275.62c0 9.6406-7.8398 17.5-17.5 17.5z"/>
</svg>
