<svg width="15" height="21" viewBox="0 0 15 21" fill="none" xmlns="http://www.w3.org/2000/svg">
<path d="M1.22843 6.3494V18.0886C1.22843 18.7824 1.45939 19.434 1.86285 19.9016C2.26446 20.3704 2.82336 20.6366 3.40828 20.6377H11.5917C12.1768 20.6366 12.7357 20.3704 13.1371 19.9016C13.5406 19.434 13.7716 18.7824 13.7716 18.0886V6.3494C14.5736 6.11489 15.0933 5.26134 14.986 4.35475C14.8786 3.44834 14.1776 2.7703 13.3477 2.77012H11.1332V2.17453C11.1357 1.67368 10.956 1.19275 10.6341 0.838932C10.3122 0.485303 9.87498 0.288387 9.42033 0.292482H5.57967C5.12502 0.288387 4.68776 0.485303 4.36591 0.838932C4.04405 1.19275 3.86428 1.67368 3.86682 2.17453V2.77012H1.65234C0.822437 2.7703 0.121447 3.44834 0.0139923 4.35475C-0.0932934 5.26134 0.426409 6.11489 1.22843 6.3494ZM11.5917 19.6847H3.40828C2.66876 19.6847 2.09348 18.9849 2.09348 18.0886V6.39128H12.9065V18.0886C12.9065 18.9849 12.3312 19.6847 11.5917 19.6847ZM4.73186 2.17453C4.72899 1.92643 4.81752 1.68764 4.97735 1.5125C5.13701 1.33736 5.35429 1.24114 5.57967 1.24542H9.42033C9.64571 1.24114 9.86299 1.33736 10.0226 1.5125C10.1825 1.68746 10.271 1.92643 10.2681 2.17453V2.77012H4.73186V2.17453ZM1.65234 3.72306H13.3477C13.7776 3.72306 14.1262 4.10702 14.1262 4.5807C14.1262 5.05438 13.7776 5.43834 13.3477 5.43834H1.65234C1.22235 5.43834 0.873799 5.05438 0.873799 4.5807C0.873799 4.10702 1.22235 3.72306 1.65234 3.72306Z" fill="black"/>
</svg>
